<svg xmlns="http://www.w3.org/2000/svg" viewBox="0 0 308.85 167.15"><defs><style>.cls-1{fill:#fff;}.cls-2,.cls-3{fill:#0b1f50;}.cls-3{font-size:40.13px;font-family:SourceSansPro-Black, Source Sans Pro;font-weight:800;}.cls-4{letter-spacing:-0.06em;}</style></defs><g id="Layer_2" data-name="Layer 2"><g id="Calque_1" data-name="Calque 1"><rect class="cls-1" width="308.85" height="167.15"/><path class="cls-2" d="M116.4,67.63l7.21,7.61a7.61,7.61,0,0,1,0,10.47l-9.92,10.46a7.58,7.58,0,0,1-5.52,2.38H88.26l17.12-18.07L82.09,62.4,97,46.7a7.59,7.59,0,0,1,5.52-2.37h8.4a7.61,7.61,0,0,1,5.52,12.84h0A7.6,7.6,0,0,0,116.4,67.63Z"/><path class="cls-2" d="M59,87.07l23.29,18.07-14.87,15.7a7.6,7.6,0,0,1-5.52,2.38h-8.4A7.61,7.61,0,0,1,48,110.38h0a7.61,7.61,0,0,0,0-10.47L40.76,92.3a7.61,7.61,0,0,1,0-10.47l9.92-10.46A7.58,7.58,0,0,1,56.2,69H76.11Z"/><circle class="cls-1" cx="81.53" cy="84.3" r="24.05"/><circle class="cls-2" cx="81.53" cy="84.3" r="15.19"/><text class="cls-3" transform="translate(152.7 78.05)">S.O.S.<tspan class="cls-4" x="0" y="35.67">T</tspan><tspan x="20.23" y="35.67">ag</tspan></text></g></g></svg>